<svg width="70" height="70" viewBox="0 0 75 93" fill="none" xmlns="http://www.w3.org/2000/svg">
<path d="M11.5385 5.8125H63.4615C64.9916 5.8125 66.4591 6.42489 67.541 7.51494C68.6229 8.605 69.2308 10.0834 69.2308 11.625H5.76923C5.76923 10.0834 6.37706 8.605 7.459 7.51494C8.54094 6.42489 10.0084 5.8125 11.5385 5.8125ZM0 11.625V14.5312C0 14.6591 0.00769201 14.7851 0.0230766 14.9091L7.79423 82.7061C8.11833 85.5391 9.46475 88.1533 11.5774 90.0513C13.69 91.9494 16.4213 92.9988 19.2519 93H55.7538C58.5835 92.999 61.3142 91.9503 63.4267 90.0535C65.5391 88.1567 66.8861 85.5439 67.2115 82.7119L74.9769 14.9033L75 14.6184V11.625C75 8.54186 73.7843 5.58499 71.6205 3.40488C69.4566 1.22477 66.5217 0 63.4615 0H11.5385C8.47827 0 5.54342 1.22477 3.37954 3.40488C1.21566 5.58499 0 8.54186 0 11.625ZM44.9942 33.4219L47.6019 37.9672C47.7913 38.2981 47.9142 38.6634 47.9635 39.0421C48.0128 39.4209 47.9876 39.8057 47.8893 40.1746C47.791 40.5435 47.6215 40.8893 47.3906 41.1922C47.1596 41.4951 46.8717 41.7493 46.5433 41.9401C46.2148 42.1309 45.8523 42.2547 45.4764 42.3044C45.1005 42.3541 44.7185 42.3286 44.3524 42.2296C43.9862 42.1306 43.643 41.9598 43.3423 41.7271C43.0416 41.4945 42.7894 41.2044 42.6 40.8735L39.9981 36.3281C39.7449 35.8864 39.3807 35.5195 38.9422 35.2645C38.5037 35.0094 38.0063 34.8751 37.5 34.8751C36.9937 34.8751 36.4963 35.0094 36.0578 35.2645C35.6193 35.5195 35.2551 35.8864 35.0019 36.3281L32.3942 40.8735C32.2062 41.2067 31.9546 41.4991 31.654 41.7339C31.3533 41.9688 31.0095 42.1414 30.6424 42.2418C30.2752 42.3422 29.892 42.3685 29.5148 42.3191C29.1375 42.2697 28.7737 42.1456 28.4442 41.9539C28.1148 41.7623 27.8262 41.5069 27.5951 41.2024C27.3641 40.898 27.195 40.5505 27.0978 40.1799C27.0006 39.8094 26.977 39.4231 27.0286 39.0434C27.0801 38.6636 27.2057 38.2979 27.3981 37.9672L30.0058 33.4219C33.3346 27.6094 41.6596 27.6094 44.9942 33.4219ZM49.9904 53.7656L49.3673 52.6845C48.9848 52.0162 48.8814 51.2222 49.08 50.4772C49.2785 49.7321 49.7627 49.097 50.426 48.7117C51.0893 48.3263 51.8773 48.2221 52.6169 48.4221C53.3564 48.6222 53.9867 49.11 54.3692 49.7783L54.9865 50.8594C55.7461 52.1848 56.1459 53.6883 56.1459 55.2187C56.1459 56.7491 55.7461 58.2526 54.9866 59.578C54.2271 60.9034 53.1347 62.0041 51.8192 62.7693C50.5036 63.5346 49.0114 63.9375 47.4923 63.9375H43.2692C42.5042 63.9375 41.7705 63.6313 41.2295 63.0863C40.6885 62.5413 40.3846 61.802 40.3846 61.0312C40.3846 60.2605 40.6885 59.5212 41.2295 58.9762C41.7705 58.4312 42.5042 58.125 43.2692 58.125H47.4923C47.9987 58.125 48.4961 57.9907 48.9346 57.7356C49.3731 57.4805 49.7372 57.1136 49.9904 56.6718C50.2436 56.23 50.3769 55.7289 50.3769 55.2187C50.3768 54.7086 50.2436 54.2074 49.9904 53.7656ZM31.7308 58.125C32.4958 58.125 33.2295 58.4312 33.7705 58.9762C34.3115 59.5212 34.6154 60.2605 34.6154 61.0312C34.6154 61.802 34.3115 62.5413 33.7705 63.0863C33.2295 63.6313 32.4958 63.9375 31.7308 63.9375H27.5077C25.9882 63.9385 24.4951 63.5363 23.1788 62.7715C21.8625 62.0067 20.7693 60.9061 20.0091 59.5805C19.2489 58.255 18.8485 56.7511 18.8483 55.2201C18.8481 53.6892 19.2479 52.1852 20.0077 50.8594L20.6308 49.7783C21.016 49.1162 21.6455 48.6345 22.382 48.4384C23.1184 48.2422 23.9019 48.3475 24.5616 48.7312C25.2213 49.1149 25.7035 49.746 25.9031 50.4866C26.1027 51.2272 26.0034 52.0173 25.6269 52.6845L25.0096 53.7656C24.7564 54.2074 24.6232 54.7086 24.6231 55.2187C24.6231 55.7289 24.7564 56.23 25.0096 56.6718C25.2628 57.1136 25.6269 57.4805 26.0654 57.7356C26.5039 57.9907 27.0013 58.125 27.5077 58.125H31.7308Z" fill="white"/>
</svg>

