<svg width="70" height="70" viewBox="0 0 96 96" fill="none" xmlns="http://www.w3.org/2000/svg">
<path d="M76.6172 57.8057C80.3346 57.8057 83.9703 58.8962 87.074 60.9421C90.1778 62.988 92.6132 65.8994 94.0786 69.3158C95.544 72.7321 95.9751 76.5033 95.3183 80.1622C94.6616 83.8211 92.946 87.207 90.384 89.9005C87.8219 92.594 84.5261 94.4768 80.9046 95.3156C77.2831 96.1544 73.495 95.9125 70.0097 94.6197C66.5243 93.327 63.4948 91.0402 61.2962 88.0426C59.0977 85.045 57.8268 81.4684 57.6409 77.7557L57.6172 76.8057L57.6409 75.8557C57.8847 70.9871 59.9903 66.3985 63.5223 63.0389C67.0544 59.6792 71.7425 57.8057 76.6172 57.8057ZM70.4754 2.19741C71.2933 3.01533 71.7846 4.10355 71.8572 5.25793C71.9297 6.4123 71.5786 7.5535 70.8697 8.46741L70.4754 8.91391L64.3337 15.0557H81.3672C85.0019 15.0555 88.4994 16.4442 91.1439 18.9378C93.7885 21.4313 95.3802 24.8412 95.5934 28.4697L95.6172 29.3057V43.5557C95.6158 44.7663 95.1523 45.9308 94.3212 46.8112C93.4901 47.6915 92.3542 48.2213 91.1456 48.2922C89.937 48.3632 88.7469 47.97 87.8185 47.1929C86.8901 46.4159 86.2934 45.3136 86.1504 44.1114L86.1172 43.5557V29.3057C86.117 28.1422 85.6899 27.0193 84.9168 26.1499C84.1437 25.2805 83.0784 24.725 81.9229 24.5889L81.3672 24.5557H64.3384L70.4754 30.6974C71.3273 31.5522 71.8219 32.6992 71.8588 33.9055C71.8956 35.1117 71.4719 36.2868 70.6738 37.192C69.8756 38.0972 68.7628 38.6646 67.5614 38.7791C66.36 38.8935 65.1601 38.5464 64.2054 37.8082L63.7589 37.4139L49.5089 23.1639C48.9667 22.634 48.5621 21.9797 48.3303 21.2578C48.0985 20.536 48.0466 19.7684 48.1789 19.0219L48.3499 18.3284L48.5399 17.8344C48.8154 17.2296 49.2034 16.7007 49.7037 16.2479L63.7589 2.19741C64.6497 1.30693 65.8577 0.806679 67.1172 0.806679C68.3767 0.806679 69.5847 1.30693 70.4754 2.19741ZM5.36719 48.3057C6.53062 48.3058 7.65354 48.733 8.52295 49.5061C9.39237 50.2792 9.94782 51.3445 10.0839 52.4999L10.1172 53.0557V67.3057C10.1173 68.4691 10.5445 69.592 11.3176 70.4614C12.0907 71.3308 13.156 71.8863 14.3114 72.0224L14.8672 72.0557H31.8959L25.7589 65.9139C24.9411 65.096 24.4498 64.0078 24.3772 62.8534C24.3046 61.699 24.6557 60.5578 25.3647 59.6439L25.7589 59.1974C26.5769 58.3796 27.6651 57.8883 28.8195 57.8157C29.9738 57.7431 31.115 58.0942 32.0289 58.8032L32.4754 59.1974L46.7254 73.4474C47.2677 73.9773 47.6723 74.6316 47.9041 75.3535C48.1358 76.0753 48.1878 76.8429 48.0554 77.5894L47.8844 78.2829L47.6944 78.7769C47.4215 79.3812 47.0251 79.9216 46.5307 80.3634L32.4754 94.4139C31.6206 95.2658 30.4736 95.7604 29.2674 95.7972C28.0611 95.8341 26.886 95.4104 25.9809 94.6122C25.0757 93.8141 24.5082 92.7013 24.3938 91.4999C24.2793 90.2985 24.6265 89.0986 25.3647 88.1439L25.7589 87.6974L31.8912 81.5557H14.8672C11.2324 81.5559 7.73499 80.1671 5.09045 77.6736C2.4459 75.18 0.854177 71.7702 0.640938 68.1417L0.617188 67.3057V53.0557C0.617188 51.7959 1.11763 50.5877 2.00843 49.6969C2.89923 48.8061 4.10741 48.3057 5.36719 48.3057ZM19.6172 0.805664C23.3346 0.805667 26.9703 1.89615 30.074 3.94206C33.1778 5.98796 35.6132 8.89939 37.0786 12.3158C38.544 15.7321 38.9751 19.5033 38.3183 23.1622C37.6616 26.8211 35.946 30.207 33.384 32.9005C30.8219 35.594 27.5261 37.4768 23.9046 38.3156C20.2831 39.1544 16.495 38.9125 13.0097 37.6197C9.52433 36.327 6.49477 34.0402 4.29624 31.0426C2.09771 28.045 0.826807 24.4684 0.640938 20.7557L0.617188 19.8057L0.640938 18.8557C0.884671 13.9871 2.99031 9.39847 6.52233 6.03885C10.0544 2.67923 14.7425 0.80566 19.6172 0.805664Z" fill="white"/>
</svg>
