<svg width="70" height="70" viewBox="0 0 80 81" fill="none" xmlns="http://www.w3.org/2000/svg">
<path d="M22.225 6.04759C20.6536 6.04759 19.1465 6.68474 18.0354 7.81888C16.9242 8.95303 16.3 10.4913 16.3 12.0952C16.3 13.6991 16.9242 15.2373 18.0354 16.3715C19.1465 17.5056 20.6536 18.1428 22.225 18.1428C23.7964 18.1428 25.3035 17.5056 26.4146 16.3715C27.5258 15.2373 28.15 13.6991 28.15 12.0952C28.15 10.4913 27.5258 8.95303 26.4146 7.81888C25.3035 6.68474 23.7964 6.04759 22.225 6.04759ZM10.375 12.0952C10.375 8.88733 11.6235 5.81088 13.8458 3.54259C16.0681 1.27431 19.0822 0 22.225 0C25.3678 0 28.3819 1.27431 30.6042 3.54259C32.8265 5.81088 34.075 8.88733 34.075 12.0952C34.075 15.303 32.8265 18.3795 30.6042 20.6477C28.3819 22.916 25.3678 24.1903 22.225 24.1903C19.0822 24.1903 16.0681 22.916 13.8458 20.6477C11.6235 18.3795 10.375 15.303 10.375 12.0952ZM7.4836 28.2221C3.6205 28.2221 0.5 31.4112 0.5 35.3502V36.8016C0.5 37.6361 0.5 42.4782 3.265 47.1833C5.4296 50.8521 9.09915 54.146 15.0163 55.6217C15.8274 53.4232 17.2948 51.5404 19.2112 50.2393C12.8793 49.5499 9.8852 46.6793 8.34865 44.0708C6.43685 40.8212 6.425 37.362 6.425 36.7895V35.3502C6.425 34.7535 6.899 34.2697 7.4836 34.2697H24.3185C24.5821 32.1383 25.2603 30.0822 26.3132 28.2221H7.4836ZM53.6868 28.2221C54.7177 30.0444 55.4129 32.0885 55.6776 34.2697H72.5164C73.101 34.2697 73.575 34.7535 73.575 35.3502V36.7895C73.575 37.362 73.5632 40.8212 71.6514 44.0667C70.1148 46.6793 67.1207 49.5499 60.7889 50.2393C62.6849 51.5295 64.1701 53.4082 64.9838 55.6217C70.9009 54.146 74.5704 50.8521 76.731 47.1833C79.5 42.4782 79.5 37.6402 79.5 36.7975V35.3461C79.5 31.4152 76.3755 28.2221 72.5164 28.2221H53.6868ZM51.85 12.0952C51.85 10.4913 52.4742 8.95303 53.5854 7.81888C54.6965 6.68474 56.2036 6.04759 57.775 6.04759C59.3464 6.04759 60.8535 6.68474 61.9646 7.81888C63.0758 8.95303 63.7 10.4913 63.7 12.0952C63.7 13.6991 63.0758 15.2373 61.9646 16.3715C60.8535 17.5056 59.3464 18.1428 57.775 18.1428C56.2036 18.1428 54.6965 17.5056 53.5854 16.3715C52.4742 15.2373 51.85 13.6991 51.85 12.0952ZM57.775 0C54.6322 0 51.6181 1.27431 49.3958 3.54259C47.1735 5.81088 45.925 8.88733 45.925 12.0952C45.925 15.303 47.1735 18.3795 49.3958 20.6477C51.6181 22.916 54.6322 24.1903 57.775 24.1903C60.9178 24.1903 63.9319 22.916 66.1542 20.6477C68.3765 18.3795 69.625 15.303 69.625 12.0952C69.625 8.88733 68.3765 5.81088 66.1542 3.54259C63.9319 1.27431 60.9178 0 57.775 0ZM40 30.2379C39.2219 30.2379 38.4515 30.3944 37.7326 30.6983C37.0137 31.0022 36.3606 31.4477 35.8104 32.0092C35.2602 32.5708 34.8238 33.2375 34.526 33.9712C34.2283 34.7049 34.075 35.4913 34.075 36.2855C34.075 37.0797 34.2283 37.8661 34.526 38.5998C34.8238 39.3336 35.2602 40.0002 35.8104 40.5618C36.3606 41.1234 37.0137 41.5688 37.7326 41.8728C38.4515 42.1767 39.2219 42.3331 40 42.3331C41.5714 42.3331 43.0785 41.6959 44.1896 40.5618C45.3008 39.4277 45.925 37.8894 45.925 36.2855C45.925 34.6816 45.3008 33.1434 44.1896 32.0092C43.0785 30.8751 41.5714 30.2379 40 30.2379ZM28.15 36.2855C28.15 33.0777 29.3985 30.0012 31.6208 27.7329C33.8431 25.4647 36.8572 24.1903 40 24.1903C43.1428 24.1903 46.1569 25.4647 48.3792 27.7329C50.6015 30.0012 51.85 33.0777 51.85 36.2855C51.85 39.4934 50.6015 42.5698 48.3792 44.8381C46.1569 47.1064 43.1428 48.3807 40 48.3807C36.8572 48.3807 33.8431 47.1064 31.6208 44.8381C29.3985 42.5698 28.15 39.4934 28.15 36.2855ZM18.275 59.5405C18.275 55.5975 21.3994 52.4124 25.2586 52.4124H54.7414C58.6006 52.4124 61.725 55.6015 61.725 59.5405V60.9919C61.725 61.8265 61.725 66.6686 58.96 71.3736C56.0251 76.3488 50.3214 80.6345 40 80.6345C29.6786 80.6345 23.9709 76.3488 21.04 71.3736C18.275 66.6686 18.275 61.8305 18.275 60.9879V59.5405ZM25.2586 58.46C24.9785 58.4621 24.7104 58.5766 24.5123 58.7788C24.3143 58.981 24.2021 59.2546 24.2 59.5405V60.9798C24.2 61.5523 24.2119 65.0116 26.1237 68.2571C27.8854 71.2527 31.5628 74.5869 40 74.5869C48.4372 74.5869 52.1146 71.2527 53.8764 68.2571C55.7881 65.0116 55.8 61.5523 55.8 60.9798V59.5405C55.7979 59.2546 55.6857 58.981 55.4877 58.7788C55.2896 58.5766 55.0215 58.4621 54.7414 58.46H25.2586Z" fill="#00D45F"/>
</svg>
