<svg width="70" height="70" viewBox="0 0 85 86" fill="none" xmlns="http://www.w3.org/2000/svg">
<path d="M42.71 72.8772L54.68 60.7667L42.71 48.6563L38.3 53.1575L42.815 57.7659C40.855 57.8374 38.9482 57.5158 37.0946 56.8014C35.241 56.0869 33.5778 54.9794 32.105 53.479C30.705 52.0501 29.6368 50.4067 28.9004 48.5491C28.164 46.6914 27.7972 44.8338 27.8 42.9761C27.8 41.7615 27.9582 40.5469 28.2746 39.3323C28.591 38.1176 29.0278 36.9388 29.585 35.7956L24.965 31.08C23.775 32.8662 22.9 34.7596 22.34 36.7601C21.78 38.7607 21.5 40.797 21.5 42.869C21.5 45.584 22.025 48.2633 23.075 50.9069C24.125 53.5505 25.665 55.9083 27.695 57.9803C29.725 60.0523 32 61.607 34.52 62.6444C37.04 63.6818 39.63 64.2348 42.29 64.3034L38.3 68.376L42.71 72.8772ZM60.035 54.6579C61.225 52.8717 62.1 50.9783 62.66 48.9778C63.22 46.9772 63.5 44.941 63.5 42.869C63.5 40.1539 62.9918 37.456 61.9754 34.7753C60.959 32.0946 59.4372 29.7196 57.41 27.6505C55.3828 25.5813 53.0896 24.0452 50.5304 23.0421C47.9712 22.0389 45.3644 21.5388 42.71 21.5416L46.7 17.3619L42.29 12.8607L30.32 24.9712L42.29 37.0816L46.7 32.5804L42.08 27.8648C43.97 27.8648 45.895 28.2406 47.855 28.9923C49.815 29.7439 51.495 30.8328 52.895 32.2589C54.295 33.685 55.3632 35.3283 56.0996 37.1888C56.836 39.0493 57.2028 40.907 57.2 42.7618C57.2 43.9764 57.0432 45.191 56.7296 46.4056C56.416 47.6203 55.9778 48.7992 55.415 49.9423L60.035 54.6579ZM42.5 85.7379C36.69 85.7379 31.23 84.6119 26.12 82.3598C21.01 80.1078 16.565 77.0541 12.785 73.1987C9.005 69.3434 6.0132 64.8064 3.8096 59.5878C1.60601 54.3693 0.502805 48.7963 0.500005 42.869C0.497205 36.9416 1.6004 31.3686 3.8096 26.1501C6.0188 20.9315 9.0106 16.3945 12.785 12.5392C16.5594 8.68382 21.0044 5.63012 26.12 3.37807C31.2356 1.12602 36.6956 0 42.5 0C48.3044 0 53.7644 1.12602 58.88 3.37807C63.9956 5.63012 68.4406 8.68382 72.215 12.5392C75.9894 16.3945 78.9826 20.9315 81.1946 26.1501C83.4066 31.3686 84.5084 36.9416 84.5 42.869C84.4916 48.7963 83.3884 54.3693 81.1904 59.5878C78.9924 64.8064 76.0006 69.3434 72.215 73.1987C68.4294 77.0541 63.9844 80.1092 58.88 82.3641C53.7756 84.619 48.3156 85.7436 42.5 85.7379ZM42.5 77.1641C51.88 77.1641 59.825 73.8418 66.335 67.1971C72.845 60.5524 76.1 52.443 76.1 42.869C76.1 33.2949 72.845 25.1855 66.335 18.5408C59.825 11.8961 51.88 8.57379 42.5 8.57379C33.12 8.57379 25.175 11.8961 18.665 18.5408C12.155 25.1855 8.9 33.2949 8.9 42.869C8.9 52.443 12.155 60.5524 18.665 67.1971C25.175 73.8418 33.12 77.1641 42.5 77.1641Z" fill="#00D45F"/>
</svg>
