<svg width="70" height="70" viewBox="0 0 80 81" fill="none" xmlns="http://www.w3.org/2000/svg">
<path d="M21.29 49.1247C22.7404 49.1235 24.1309 48.5343 25.1557 47.4867C26.1805 46.439 26.7555 45.0188 26.7544 43.5384C26.7532 42.058 26.1759 40.6387 25.1495 39.5927C24.1231 38.5467 22.7317 37.9598 21.2812 37.9609C19.8308 37.9621 18.4403 38.5513 17.4155 39.599C16.9081 40.1177 16.5058 40.7334 16.2315 41.4109C15.9572 42.0883 15.8163 42.8143 15.8169 43.5473C15.8174 44.2803 15.9595 45.0061 16.2348 45.6831C16.5102 46.3601 16.9135 46.9751 17.4217 47.493C18.4481 48.539 19.8396 49.1259 21.29 49.1247ZM5.9775 58.0558C7.4279 58.0546 8.81844 57.4654 9.84321 56.4177C10.868 55.3701 11.443 53.9498 11.4419 52.4694C11.4407 50.989 10.8634 49.5697 9.83702 48.5237C8.81061 47.4777 7.41915 46.8908 5.96875 46.892C4.51835 46.8932 3.12781 47.4824 2.10304 48.53C1.07827 49.5777 0.503214 50.9979 0.504375 52.4783C0.505535 53.9587 1.08282 55.3781 2.10923 56.424C3.13564 57.47 4.5271 58.0569 5.9775 58.0558ZM48.6294 52.4694C48.63 53.2024 48.4891 53.9284 48.2148 54.6058C47.9405 55.2833 47.5381 55.899 47.0307 56.4177C46.5233 56.9365 45.9207 57.3481 45.2575 57.6292C44.5942 57.9102 43.8832 58.0552 43.165 58.0558C41.7146 58.0569 40.3231 57.47 39.2967 56.424C38.2703 55.3781 37.693 53.9587 37.6919 52.4783C37.6913 51.7453 37.8322 51.0193 38.1065 50.3419C38.3808 49.6644 38.7831 49.0488 39.2905 48.53C40.3153 47.4824 41.7058 46.8932 43.1562 46.892C44.6067 46.8908 45.9981 47.4777 47.0245 48.5237C48.0509 49.5697 48.6282 50.989 48.6294 52.4694ZM20.1875 51.353C21.3478 51.353 22.4606 51.8235 23.2811 52.6609C24.1016 53.4984 24.5625 54.6342 24.5625 55.8185V60.2841H28.9375C30.0978 60.2841 31.2106 60.7545 32.0311 61.592C32.8516 62.4294 33.3125 63.5652 33.3125 64.7496C33.3125 65.9339 32.8516 67.0697 32.0311 67.9072C31.2106 68.7446 30.0978 69.2151 28.9375 69.2151H20.1875C19.0272 69.2151 17.9144 68.7446 17.0939 67.9072C16.2734 67.0697 15.8125 65.9339 15.8125 64.7496V55.8185C15.8125 54.6342 16.2734 53.4984 17.0939 52.6609C17.9144 51.8235 19.0272 51.353 20.1875 51.353ZM9.25 64.7496C9.25 63.5652 8.78906 62.4294 7.96859 61.592C7.14812 60.7545 6.03532 60.2841 4.875 60.2841C3.71468 60.2841 2.60188 60.7545 1.78141 61.592C0.960936 62.4294 0.5 63.5652 0.5 64.7496V75.9134C0.5 77.0977 0.960936 78.2335 1.78141 79.071C2.60188 79.9084 3.71468 80.3789 4.875 80.3789H13.625C14.7853 80.3789 15.8981 79.9084 16.7186 79.071C17.5391 78.2335 18 77.0977 18 75.9134C18 74.729 17.5391 73.5932 16.7186 72.7558C15.8981 71.9183 14.7853 71.4479 13.625 71.4479H9.25V64.7496ZM44.25 60.2841C43.0897 60.2841 41.9769 60.7545 41.1564 61.592C40.3359 62.4294 39.875 63.5652 39.875 64.7496V71.4479H35.5C34.3397 71.4479 33.2269 71.9183 32.4064 72.7558C31.5859 73.5932 31.125 74.729 31.125 75.9134C31.125 77.0977 31.5859 78.2335 32.4064 79.071C33.2269 79.9084 34.3397 80.3789 35.5 80.3789H44.25C45.4103 80.3789 46.5231 79.9084 47.3436 79.071C48.1641 78.2335 48.625 77.0977 48.625 75.9134V64.7496C48.625 63.5652 48.1641 62.4294 47.3436 61.592C46.5231 60.7545 45.4103 60.2841 44.25 60.2841Z" fill="#00D45F"/>
<path fill-rule="evenodd" clip-rule="evenodd" d="M79.25 24.5603C79.2502 27.9473 77.9936 31.2086 75.7329 33.688C73.4722 36.1673 70.3754 37.6807 67.0656 37.9234L60.3916 44.7333C62.2619 47.9641 63.1041 52.251 63.5175 57.018C63.9375 61.8608 63.9375 67.5231 63.9375 73.6051V75.9138H59.5625V73.681C59.5625 67.5097 59.5625 62.0372 59.16 57.4132C58.8078 53.3629 58.1647 50.208 57.0972 47.9172C54.4787 47.56 52.0878 46.2159 50.0403 44.5592C47.6253 42.6077 45.4772 40.0602 43.7097 37.6041C42.0104 35.2265 40.472 32.7335 39.105 30.1422C36.165 32.2187 32.2034 33.4914 27.8438 33.4914C18.7831 33.4914 11.4375 27.9943 11.4375 21.2112C11.4375 14.9751 17.6456 9.82414 25.6891 9.03597C28.4934 3.77783 36.2328 0 45.3438 0C55.6425 0 64.1912 4.82946 65.8384 11.166L66.125 11.1638C69.606 11.1638 72.9444 12.5752 75.4058 15.0876C77.8672 17.5999 79.25 21.0074 79.25 24.5603ZM53.0591 25.8397C50.5353 26.4791 47.9441 26.7993 45.3438 26.7931C44.3929 26.7931 43.4596 26.7529 42.5437 26.6725L42.3775 26.9137C42.6137 27.3781 42.9244 27.9787 43.305 28.6709C44.5533 30.9696 45.9475 33.1825 47.4787 35.2954V34.9695C49.8959 34.9695 52.4334 33.6365 54.5378 32.049C54.6997 31.9299 54.8565 31.8086 55.0081 31.6851C53.9184 29.9195 53.2508 27.9172 53.0591 25.8397ZM57.9284 35.0231C59.0421 35.9332 60.2938 36.6519 61.6341 37.1509L55.9028 43.0007C54.8849 42.5795 53.8356 41.9319 52.755 41.0582C51.9832 40.4247 51.2504 39.7431 50.5609 39.0175C53.1488 38.3342 55.4391 36.9209 57.1366 35.6438C57.4136 35.4354 57.6776 35.2285 57.9284 35.0231Z" fill="#00D45F"/>
</svg>
