<svg width="70" height="70" viewBox="0 0 98 91" fill="none" xmlns="http://www.w3.org/2000/svg">
<path d="M27.2493 28.3125C29.1535 28.3125 31.039 27.9536 32.7983 27.2563C34.5575 26.559 36.1559 25.537 37.5024 24.2486C38.8488 22.9602 39.9169 21.4306 40.6456 19.7472C41.3743 18.0638 41.7493 16.2596 41.7493 14.4375C41.7493 12.6154 41.3743 10.8112 40.6456 9.12777C39.9169 7.44438 38.8488 5.91481 37.5024 4.62639C36.1559 3.33798 34.5575 2.31596 32.7983 1.61867C31.039 0.921387 29.1535 0.5625 27.2493 0.5625C23.4037 0.5625 19.7156 2.02433 16.9963 4.62639C14.277 7.22846 12.7493 10.7576 12.7493 14.4375C12.7493 18.1174 14.277 21.6465 16.9963 24.2486C19.7156 26.8507 23.4037 28.3125 27.2493 28.3125ZM70.7493 28.3125C72.6535 28.3125 74.539 27.9536 76.2983 27.2563C78.0575 26.559 79.6559 25.537 81.0024 24.2486C82.3488 22.9602 83.4169 21.4306 84.1456 19.7472C84.8743 18.0638 85.2493 16.2596 85.2493 14.4375C85.2493 12.6154 84.8743 10.8112 84.1456 9.12777C83.4169 7.44438 82.3488 5.91481 81.0024 4.62639C79.6559 3.33798 78.0575 2.31596 76.2983 1.61867C74.539 0.921387 72.6535 0.5625 70.7493 0.5625C66.9037 0.5625 63.2156 2.02433 60.4963 4.62639C57.777 7.22846 56.2493 10.7576 56.2493 14.4375C56.2493 18.1174 57.777 21.6465 60.4963 24.2486C63.2156 26.8507 66.9037 28.3125 70.7493 28.3125ZM0.666016 40.9064C0.666016 39.8599 0.881421 38.8236 1.29993 37.8568C1.71845 36.89 2.33187 36.0115 3.10518 35.2715C3.87849 34.5316 4.79655 33.9446 5.80693 33.5441C6.8173 33.1436 7.90022 32.9375 8.99385 32.9375H32.2518C30.5522 35.7486 29.6601 38.9399 29.666 42.1875C29.6628 44.8126 30.2448 47.4081 31.3734 49.8008C32.5019 52.1935 34.1509 54.3282 36.2103 56.0625H30.7438C28.4414 56.0607 26.1788 56.6375 24.1825 57.7353C22.1862 58.8331 20.5262 60.4133 19.3686 62.3178C11.5821 60.8563 6.85027 57.2234 4.09527 53.1418C0.666016 48.0612 0.666016 42.8119 0.666016 41.9031V40.9064ZM67.2548 56.0625C69.5573 56.0607 71.8199 56.6375 73.8162 57.7353C75.8125 58.8331 77.4725 60.4133 78.6301 62.3178C86.4166 60.8563 91.1484 57.2234 93.9034 53.1418C97.3327 48.0612 97.3327 42.8119 97.3327 41.9031V40.9087C97.333 39.862 97.1178 38.8255 96.6995 37.8584C96.2811 36.8913 95.6677 36.0126 94.8944 35.2723C94.121 34.5321 93.2029 33.9449 92.1923 33.5443C91.1818 33.1437 90.0987 32.9375 89.0048 32.9375H65.7468C67.4464 35.7486 68.3386 38.9399 68.3327 42.1875C68.3359 44.8126 67.7539 47.4081 66.6253 49.8008C65.4968 52.1935 63.8477 54.3282 61.7883 56.0625H67.2548ZM63.4993 42.1875C63.4993 45.8674 61.9717 49.3965 59.2524 51.9986C56.5331 54.6007 52.845 56.0625 48.9993 56.0625C45.1537 56.0625 41.4656 54.6007 38.7463 51.9986C36.027 49.3965 34.4993 45.8674 34.4993 42.1875C34.4993 38.5076 36.027 34.9785 38.7463 32.3764C41.4656 29.7743 45.1537 28.3125 48.9993 28.3125C52.845 28.3125 56.5331 29.7743 59.2524 32.3764C61.9717 34.9785 63.4993 38.5076 63.4993 42.1875ZM22.416 68.6564C22.416 66.5429 23.2934 64.516 24.8552 63.0215C26.417 61.5271 28.5352 60.6875 30.7438 60.6875H67.2548C69.4635 60.6875 71.5817 61.5271 73.1435 63.0215C74.7053 64.516 75.5827 66.5429 75.5827 68.6564V69.6531C75.5827 70.5642 75.5827 75.8112 72.1534 80.8918C68.5695 86.2013 61.6458 90.75 48.9993 90.75C36.3529 90.75 29.4292 86.2013 25.8453 80.8918C22.416 75.8112 22.416 70.5619 22.416 69.6531V68.6564Z" fill="white"/>
</svg>
