<svg width="70" height="70" viewBox="0 0 109 108" fill="none" xmlns="http://www.w3.org/2000/svg">
<path d="M107.016 66.435L93.5788 89.7088C90.945 94.3313 86.0538 96.75 81.1088 96.4275H70.3588V107.178L56.9213 82.99L70.3588 58.8025V69.5525H85.5163L73.5838 48.8587L96.8575 35.4212L106.533 52.1913C109.328 56.33 109.704 61.8663 107.016 66.435ZM39.2375 0H66.1125C71.38 0 75.9488 3.06375 78.1525 7.47125L83.5275 16.8238L92.8263 11.4488L78.6363 35.1525L50.955 35.6362L60.2538 30.2612L52.675 17.0925L40.7963 37.7863L17.4688 24.3488L27.1438 7.57875C29.3475 3.1175 33.9163 0 39.2375 0ZM16.8775 89.7625L3.44 66.4888C0.80625 61.92 1.1825 56.4375 3.92375 52.2987L9.29875 43L0 37.625L27.6275 38.055L41.8713 61.8125L32.5725 56.4375L24.9938 69.5525H48.8588V96.4275H29.5088C26.9906 96.6097 24.4718 96.0817 22.2389 94.9035C20.0059 93.7252 18.1484 91.9441 16.8775 89.7625Z" fill="white"/>
</svg>
